<svg width="28" height="36" viewBox="0 0 28 36" fill="none" xmlns="http://www.w3.org/2000/svg">
<path d="M22.9482 6.3553C22.9411 6.34145 22.9292 6.33059 22.9148 6.32468C21.2469 5.55943 19.4868 5.01375 17.6785 4.70129C17.6621 4.69824 17.6451 4.70044 17.63 4.70759C17.6149 4.71473 17.6025 4.72646 17.5944 4.7411C17.3547 5.1761 17.1372 5.62292 16.9425 6.07985C14.9933 5.78396 13.0106 5.78396 11.0614 6.07985C10.8655 5.62176 10.6444 5.17483 10.3993 4.7411C10.3908 4.72678 10.3783 4.71532 10.3633 4.70822C10.3483 4.70112 10.3315 4.6987 10.3151 4.70129C8.50662 5.01309 6.7464 5.55882 5.07872 6.32472C5.06445 6.33077 5.0524 6.34111 5.04425 6.3543C1.70923 11.3347 0.795644 16.1927 1.24382 20.9905C1.24508 21.0022 1.24869 21.0136 1.25444 21.0239C1.26019 21.0343 1.26796 21.0433 1.27729 21.0506C3.21924 22.4885 5.39133 23.586 7.70088 24.2964C7.71715 24.3013 7.73451 24.301 7.75065 24.2958C7.76679 24.2905 7.78091 24.2804 7.79114 24.2668C8.28718 23.5919 8.72671 22.8772 9.10526 22.13C9.11046 22.1197 9.11343 22.1085 9.11397 22.097C9.11451 22.0855 9.11261 22.074 9.1084 22.0633C9.10419 22.0527 9.09776 22.043 9.08953 22.0349C9.08131 22.0269 9.07147 22.0207 9.06067 22.0168C8.36757 21.7516 7.69656 21.4319 7.05395 21.0607C7.04228 21.0538 7.03247 21.0442 7.0254 21.0326C7.01833 21.0211 7.01422 21.008 7.01342 20.9945C7.01262 20.9809 7.01516 20.9674 7.02082 20.9551C7.02647 20.9428 7.03507 20.9321 7.04586 20.9239C7.18069 20.8229 7.31562 20.7178 7.44437 20.6117C7.45581 20.6023 7.46966 20.5962 7.48434 20.5942C7.49903 20.5923 7.51398 20.5944 7.5275 20.6005C11.7375 22.5218 16.2954 22.5218 20.4556 20.6005C20.4692 20.594 20.4843 20.5916 20.4992 20.5934C20.5141 20.5952 20.5282 20.6012 20.5398 20.6107C20.6686 20.7168 20.8035 20.8229 20.9393 20.9239C20.9502 20.932 20.9588 20.9427 20.9646 20.9549C20.9703 20.9672 20.973 20.9807 20.9723 20.9942C20.9716 21.0077 20.9676 21.0208 20.9606 21.0324C20.9536 21.044 20.9439 21.0537 20.9322 21.0607C20.2911 21.435 19.6195 21.7545 18.9245 22.0157C18.9138 22.0199 18.904 22.0262 18.8958 22.0343C18.8876 22.0425 18.8812 22.0523 18.8771 22.0631C18.873 22.0739 18.8712 22.0854 18.8718 22.0969C18.8724 22.1084 18.8755 22.1197 18.8808 22.13C19.2657 22.873 19.7046 23.5868 20.1939 24.2656C20.2038 24.2796 20.2179 24.29 20.2341 24.2955C20.2503 24.301 20.2678 24.3013 20.2842 24.2963C22.5979 23.5883 24.7737 22.4907 26.7181 21.0506C26.7276 21.0437 26.7355 21.0349 26.7413 21.0247C26.747 21.0145 26.7506 21.0031 26.7516 20.9915C27.2882 15.4447 25.8533 10.6266 22.9482 6.3553ZM9.73399 18.0691C8.46646 18.0691 7.42206 16.9059 7.42206 15.4774C7.42206 14.0489 8.44621 12.8856 9.73399 12.8856C11.0318 12.8856 12.0661 14.059 12.0459 15.4773C12.0459 16.9059 11.0217 18.0691 9.73399 18.0691ZM18.2819 18.0691C17.0144 18.0691 15.97 16.9059 15.97 15.4774C15.97 14.0489 16.9941 12.8856 18.2819 12.8856C19.5798 12.8856 20.614 14.059 20.5938 15.4773C20.5938 16.9059 19.5798 18.0691 18.2819 18.0691Z" fill="#555555"/>
</svg>
