<svg width="66" height="33" viewBox="0 0 66 33" fill="none" xmlns="http://www.w3.org/2000/svg">
<g clip-path="url(#clip0_1_31)">
<path d="M15.9233 15.9136C15.9526 15.9136 15.9819 15.9136 16.0112 15.9136L26.6145 9.96756C29.1335 8.5616 30.0415 5.33961 28.6355 2.76201C27.2589 0.184419 24.0955 -0.752887 21.5765 0.653073L3.38686 10.8463C3.29898 10.9049 3.29898 11.022 3.41615 11.0513L15.9233 15.9136Z" fill="#E84435"/>
<path d="M23.6563 32.0824C25.4431 32.1117 27.2005 31.2037 28.1964 29.5341C29.6609 27.0444 28.8701 23.7638 26.4097 22.2407L8.36652 11.0809C5.90609 9.55775 2.71339 10.3486 1.24885 12.8676C-0.215695 15.3573 0.575158 18.6379 3.03559 20.161L21.0787 31.3208C21.8696 31.8188 22.7776 32.0824 23.6563 32.0824Z" fill="#2376E5"/>
<path d="M41.7875 32.5213C42.6662 32.5506 43.5742 32.3455 44.3943 31.8769L62.6132 21.6837C62.7011 21.6251 62.7011 21.5079 62.6132 21.4787L50.2232 16.5285C50.1939 16.5285 50.1646 16.5285 50.1353 16.5285L39.3563 22.5624C36.8373 23.9684 35.9293 27.1904 37.3352 29.768C38.2726 31.4961 40.0007 32.4627 41.7875 32.5213Z" fill="#F6BA17"/>
<path d="M60.2115 22.2106C61.9982 22.2399 63.7557 21.3319 64.7516 19.6623C66.2161 17.1726 65.4253 13.892 62.9648 12.3689L44.9217 1.20911C42.4613 -0.314018 39.2686 0.476834 37.804 2.99585C36.3395 5.48557 37.1303 8.76614 39.5908 10.2893L57.6339 21.4491C58.4248 21.9177 59.3328 22.1813 60.2115 22.2106Z" fill="#089D57"/>
</g>
<defs>
<clipPath id="clip0_1_31">
<rect width="66" height="33" fill="white"/>
</clipPath>
</defs>
</svg>
