<svg width="28" height="36" viewBox="0 0 28 36" fill="none" xmlns="http://www.w3.org/2000/svg">
<path d="M14.0055 8.21099C10.5274 8.21099 7.72189 11.0165 7.72189 14.4946C7.72189 17.9727 10.5274 20.7782 14.0055 20.7782C17.4836 20.7782 20.2891 17.9727 20.2891 14.4946C20.2891 11.0165 17.4836 8.21099 14.0055 8.21099ZM14.0055 18.5797C11.7578 18.5797 9.92032 16.7477 9.92032 14.4946C9.92032 12.2415 11.7524 10.4094 14.0055 10.4094C16.2586 10.4094 18.0906 12.2415 18.0906 14.4946C18.0906 16.7477 16.2531 18.5797 14.0055 18.5797ZM22.0117 7.95396C22.0117 8.7688 21.3555 9.41958 20.5461 9.41958C19.7313 9.41958 19.0805 8.76333 19.0805 7.95396C19.0805 7.14458 19.7367 6.48833 20.5461 6.48833C21.3555 6.48833 22.0117 7.14458 22.0117 7.95396ZM26.1735 9.44146C26.0805 7.47817 25.632 5.73911 24.1938 4.3063C22.761 2.87349 21.0219 2.42505 19.0586 2.32661C17.0352 2.21177 10.9703 2.21177 8.94689 2.32661C6.98907 2.41958 5.25001 2.86802 3.81173 4.30083C2.37345 5.73364 1.93048 7.4727 1.83204 9.43599C1.7172 11.4594 1.7172 17.5243 1.83204 19.5477C1.92501 21.511 2.37345 23.25 3.81173 24.6829C5.25001 26.1157 6.98361 26.5641 8.94689 26.6625C10.9703 26.7774 17.0352 26.7774 19.0586 26.6625C21.0219 26.5696 22.761 26.1211 24.1938 24.6829C25.6266 23.25 26.075 21.511 26.1735 19.5477C26.2883 17.5243 26.2883 11.4649 26.1735 9.44146ZM23.5594 21.7188C23.1328 22.7907 22.307 23.6165 21.2297 24.0485C19.6164 24.6883 15.7883 24.5407 14.0055 24.5407C12.2227 24.5407 8.38907 24.6829 6.78126 24.0485C5.70939 23.6219 4.88361 22.7961 4.45157 21.7188C3.81173 20.1055 3.95939 16.2774 3.95939 14.4946C3.95939 12.7118 3.8172 8.87817 4.45157 7.27036C4.87814 6.19849 5.70392 5.3727 6.78126 4.94067C8.39454 4.30083 12.2227 4.44849 14.0055 4.44849C15.7883 4.44849 19.6219 4.3063 21.2297 4.94067C22.3016 5.36724 23.1274 6.19302 23.5594 7.27036C24.1992 8.88364 24.0516 12.7118 24.0516 14.4946C24.0516 16.2774 24.1992 20.111 23.5594 21.7188Z" fill="#555555"/>
</svg>
