<svg width="28" height="36" viewBox="0 0 28 36" fill="none" xmlns="http://www.w3.org/2000/svg">
<path d="M24.5 2.25H3.49453C2.53203 2.25 1.75 3.04297 1.75 4.01641V24.9836C1.75 25.957 2.53203 26.75 3.49453 26.75H24.5C25.4625 26.75 26.25 25.957 26.25 24.9836V4.01641C26.25 3.04297 25.4625 2.25 24.5 2.25ZM9.15469 23.25H5.52344V11.5578H9.16016V23.25H9.15469ZM7.33906 9.96094C6.17422 9.96094 5.23359 9.01484 5.23359 7.85547C5.23359 6.69609 6.17422 5.75 7.33906 5.75C8.49844 5.75 9.44453 6.69609 9.44453 7.85547C9.44453 9.02031 8.50391 9.96094 7.33906 9.96094ZM22.7664 23.25H19.1352V17.5625C19.1352 16.2063 19.1078 14.4617 17.2484 14.4617C15.3562 14.4617 15.0664 15.9383 15.0664 17.4641V23.25H11.4352V11.5578H14.9187V13.1547H14.968C15.4547 12.2359 16.6414 11.268 18.4078 11.268C22.0828 11.268 22.7664 13.6906 22.7664 16.8406V23.25Z" fill="#555555"/>
</svg>
