<svg width="28" height="36" viewBox="0 0 28 36" fill="none" xmlns="http://www.w3.org/2000/svg">
<path d="M26.25 11.9795C23.8424 11.9852 21.4938 11.2344 19.536 9.83297V19.6067C19.5353 21.4169 18.982 23.1838 17.9501 24.671C16.9182 26.1583 15.4568 27.2951 13.7613 27.9294C12.0659 28.5636 10.2172 28.6652 8.46248 28.2204C6.70777 27.7757 5.13065 26.8058 3.94201 25.4405C2.75338 24.0753 2.00988 22.3796 1.81095 20.5804C1.61201 18.7811 1.96711 16.9641 2.82877 15.3721C3.69043 13.7801 5.01757 12.4891 6.63274 11.6718C8.24791 10.8544 10.0741 10.5496 11.8672 10.7982V15.7141C11.0467 15.456 10.1656 15.4637 9.34977 15.7363C8.53395 16.0088 7.8251 16.5321 7.32445 17.2316C6.8238 17.931 6.55695 18.7707 6.56202 19.6308C6.56708 20.491 6.8438 21.3275 7.35266 22.021C7.86151 22.7145 8.57648 23.2294 9.39546 23.4923C10.2144 23.7552 11.0955 23.7526 11.913 23.4849C12.7304 23.2171 13.4423 22.698 13.947 22.0015C14.4518 21.305 14.7235 20.4669 14.7235 19.6067V0.5H19.536C19.5327 0.906405 19.5667 1.31226 19.6377 1.71242C19.805 2.60573 20.1527 3.45554 20.6596 4.20985C21.1665 4.96417 21.822 5.60715 22.5859 6.09945C23.6728 6.8181 24.947 7.20113 26.25 7.20086V11.9795Z" fill="#555555"/>
</svg>
