<svg width="28" height="36" viewBox="0 0 28 36" fill="none" xmlns="http://www.w3.org/2000/svg">
<path d="M26.7194 8.08745C26.414 6.9378 25.5144 6.03237 24.3722 5.7251C22.3019 5.16675 14 5.16675 14 5.16675C14 5.16675 5.69821 5.16675 3.62781 5.7251C2.4856 6.03241 1.586 6.9378 1.28067 8.08745C0.725922 10.1713 0.725922 14.5189 0.725922 14.5189C0.725922 14.5189 0.725922 18.8666 1.28067 20.9504C1.586 22.1001 2.4856 22.9678 3.62781 23.2751C5.69821 23.8334 14 23.8334 14 23.8334C14 23.8334 22.3018 23.8334 24.3722 23.2751C25.5144 22.9678 26.414 22.1001 26.7194 20.9504C27.2741 18.8666 27.2741 14.5189 27.2741 14.5189C27.2741 14.5189 27.2741 10.1713 26.7194 8.08745ZM11.2848 18.4663V10.5716L18.2235 14.519L11.2848 18.4663Z" fill="#555555"/>
</svg>
